<?xml version="1.0" standalone="no"?>
<!DOCTYPE svg PUBLIC "-//W3C//DTD SVG 20010904//EN"
 "http://www.w3.org/TR/2001/REC-SVG-20010904/DTD/svg10.dtd">
<svg version="1.0" xmlns="http://www.w3.org/2000/svg"
 width="1600.000000pt" height="1600.000000pt" viewBox="0 0 1600.000000 1600.000000"
 preserveAspectRatio="xMidYMid meet">

<g transform="translate(0.000000,1600.000000) scale(0.100000,-0.100000)"
fill="#000000" stroke="none">
<path d="M30 8008 c0 -4380 4 -7969 8 -7976 7 -10 1609 -12 7978 -10 l7969 3
2 7973 3 7972 -7980 0 -7980 0 0 -7962z m8810 3702 c449 -48 819 -116 1105
-202 119 -36 285 -102 337 -135 21 -12 42 -23 48 -23 23 0 7 -26 -28 -43 -20
-10 -101 -57 -179 -103 -78 -46 -151 -84 -163 -84 -11 0 -186 27 -388 60 -202
34 -489 81 -638 105 -266 44 -420 69 -884 139 -355 55 -419 64 -495 71 l-70 6
50 -47 c275 -258 325 -321 380 -484 43 -125 76 -182 155 -260 107 -108 230
-163 389 -176 203 -16 384 79 541 286 65 86 108 126 175 165 l45 27 88 -15
c48 -9 153 -26 235 -39 81 -12 147 -26 147 -30 0 -4 -21 -22 -47 -39 -293
-200 -749 -589 -972 -829 l-100 -107 -98 -12 c-867 -104 -1652 -387 -2353
-850 -132 -87 -143 -92 -135 -59 3 13 19 84 36 158 33 148 75 311 89 350 5 14
18 59 30 100 12 41 28 93 36 115 45 136 80 232 120 334 48 120 52 131 103 244
17 38 31 71 31 74 0 10 199 401 224 442 14 22 26 43 26 45 0 9 138 237 218
361 150 232 220 323 255 334 50 16 369 79 512 100 113 17 224 30 405 45 123
11 586 -4 770 -24z m-2417 -467 c-744 -1214 -1079 -2727 -912 -4112 l19 -163
-34 -102 c-122 -361 -136 -770 -40 -1164 98 -403 323 -848 632 -1252 44 -58
79 -107 77 -109 -2 -1 -43 28 -92 65 -604 467 -947 996 -1038 1604 -12 79 -17
172 -17 295 1 194 14 309 57 475 14 57 24 104 22 106 -6 7 -178 -104 -277
-179 -115 -87 -339 -308 -442 -437 -316 -397 -539 -925 -632 -1500 -23 -139
-56 -436 -56 -499 0 -40 -17 -12 -35 59 -116 455 -114 1068 5 1675 60 305 246
919 340 1120 5 11 25 59 44 108 62 151 224 491 282 591 l35 58 -28 -6 c-58
-14 -314 -148 -429 -225 -368 -246 -742 -629 -1049 -1074 -37 -54 -69 -96 -72
-93 -16 15 276 868 357 1041 5 11 18 40 28 65 198 459 337 741 531 1075 362
627 728 1112 1186 1571 390 391 707 636 1160 899 75 44 418 214 432 215 6 0
-18 -48 -54 -107z m4766 -59 c623 -92 1213 -341 1572 -665 279 -253 448 -595
466 -949 l6 -105 -99 101 c-260 264 -584 378 -1074 378 -487 -1 -988 -119
-1595 -377 -116 -49 -460 -229 -580 -304 -915 -569 -1389 -1322 -1362 -2163 6
-201 23 -316 73 -520 147 -594 495 -1134 990 -1532 108 -87 316 -224 438 -289
55 -29 95 -54 90 -56 -11 -4 -230 77 -319 117 -557 250 -997 560 -1319 930
-312 359 -497 727 -584 1165 -41 205 -47 275 -47 550 0 275 6 332 52 555 54
261 174 582 304 810 182 321 372 560 749 944 498 507 1041 911 1710 1271 303
164 278 153 354 154 38 1 116 -6 175 -15z m-2684 -59 c181 -30 331 -57 334
-60 8 -9 -20 -77 -54 -130 -45 -70 -100 -121 -161 -151 -48 -23 -62 -26 -146
-22 -105 4 -174 29 -242 88 -62 55 -83 110 -101 273 -6 55 -6 57 17 57 13 0
172 -25 353 -55z m-389 -1692 c-123 -161 -264 -392 -357 -583 -443 -909 -434
-1996 24 -2825 141 -254 297 -457 531 -691 214 -213 388 -347 635 -490 46 -26
79 -50 73 -52 -8 -2 -185 58 -267 93 -855 357 -1454 922 -1748 1650 -99 248
-161 483 -202 781 -34 241 -29 707 9 892 14 67 10 77 -15 34 -9 -15 -41 -70
-71 -122 -266 -458 -396 -998 -360 -1488 14 -182 39 -336 82 -490 33 -120 66
-227 79 -257 5 -11 24 -56 41 -100 125 -312 341 -648 572 -890 61 -63 109
-117 107 -119 -6 -5 -217 113 -305 171 -564 369 -900 1034 -1004 1988 -11 105
-23 204 -25 220 -42 254 -48 1263 -8 1295 11 8 103 76 193 142 452 328 918
569 1415 731 209 68 545 154 613 156 23 1 23 -1 -12 -46z m-7569 -8875 c21
-34 61 -141 57 -153 -16 -41 -51 -16 -75 53 -13 37 -24 41 -32 10 -7 -26 -1
-38 19 -38 18 0 18 -24 0 -39 -20 -16 -77 -10 -89 10 -7 11 0 36 26 92 31 66
39 77 61 77 14 0 28 -6 33 -12z m481 -70 l-3 -83 -31 -3 c-38 -4 -64 19 -64
55 0 32 26 63 52 63 13 0 18 7 18 25 0 16 6 25 15 25 13 0 15 -14 13 -82z
m182 58 c0 -19 6 -25 27 -28 17 -2 33 -13 42 -30 14 -25 14 -29 -5 -55 -15
-20 -31 -29 -57 -31 l-37 -3 0 85 c0 70 3 86 15 86 9 0 15 -9 15 -24z m676 13
c3 -6 1 -15 -7 -19 -10 -7 -10 -11 1 -25 10 -12 10 -19 3 -23 -7 -4 -13 -25
-15 -47 -2 -28 -8 -41 -20 -43 -15 -3 -18 4 -18 42 0 25 -4 48 -10 51 -6 4 -3
17 7 33 27 42 46 52 59 31z m44 -58 c0 -40 5 -73 11 -77 16 -10 -6 -28 -25
-21 -23 9 -24 167 -1 167 12 0 15 -14 15 -69z m-1065 51 c10 -7 44 -90 52
-129 7 -29 -23 -32 -32 -3 -9 27 -49 26 -68 -2 -36 -54 -31 12 8 106 16 37 22
41 40 28z m695 -14 c0 -13 -8 -18 -30 -18 -20 0 -30 -5 -30 -15 0 -10 10 -15
30 -15 20 0 30 -5 30 -15 0 -10 -10 -15 -30 -15 -27 0 -30 -3 -30 -30 0 -20
-5 -30 -15 -30 -12 0 -15 15 -15 79 l0 79 45 -1 c37 0 45 -4 45 -19z m50 7 c0
-8 -7 -15 -15 -15 -8 0 -15 7 -15 15 0 8 7 15 15 15 8 0 15 -7 15 -15z m-466
-41 c20 -20 20 -68 0 -88 -36 -36 -94 -9 -94 44 0 35 23 60 55 60 13 0 31 -7
39 -16z m244 4 c7 -7 12 -22 12 -35 0 -20 -5 -23 -36 -23 -21 0 -33 -4 -29
-10 3 -5 17 -10 31 -10 15 0 24 -6 24 -15 0 -18 -41 -20 -71 -5 -24 13 -26 72
-3 94 18 19 55 21 72 4z m222 -48 c0 -47 -3 -60 -15 -60 -12 0 -15 13 -15 60
0 47 3 60 15 60 12 0 15 -13 15 -60z m90 43 c0 -7 -9 -17 -20 -23 -14 -8 -20
-21 -20 -45 0 -24 -5 -35 -15 -35 -12 0 -15 13 -15 59 l0 59 35 -1 c21 -1 35
-6 35 -14z m98 5 c7 -7 12 -22 12 -35 0 -20 -5 -23 -36 -23 -21 0 -33 -4 -29
-10 3 -5 17 -10 31 -10 15 0 24 -6 24 -15 0 -18 -41 -20 -71 -5 -24 13 -26 72
-3 94 18 19 55 21 72 4z m198 -28 l12 -35 8 33 c6 31 28 52 40 40 8 -9 -49
-150 -63 -155 -20 -8 -26 3 -15 23 7 13 5 32 -9 69 -23 61 -23 67 -2 63 9 -2
22 -19 29 -38z"/>
<path d="M10595 10604 c-82 -8 -231 -28 -330 -44 -201 -34 -194 -31 -352 -157
-89 -71 -113 -94 -75 -74 56 30 455 88 761 111 174 13 592 13 746 0 587 -50
967 -176 1383 -457 50 -34 92 -59 92 -56 0 14 -138 158 -208 216 -317 264
-727 410 -1292 462 -200 18 -521 18 -725 -1z"/>
<path d="M964 475 c-9 -21 3 -45 21 -45 10 0 15 10 15 30 0 32 -26 43 -36 15z"/>
<path d="M1210 460 c0 -25 4 -31 18 -28 11 2 17 12 17 28 0 16 -6 26 -17 28
-14 3 -18 -3 -18 -28z"/>
<path d="M845 497 c-8 -19 -2 -31 13 -26 5 2 6 13 2 24 -7 19 -8 19 -15 2z"/>
<path d="M1087 475 c-9 -22 3 -46 22 -43 10 2 16 13 16 28 0 28 -29 40 -38 15z"/>
<path d="M1340 480 c0 -5 7 -7 15 -4 8 4 15 8 15 10 0 2 -7 4 -15 4 -8 0 -15
-4 -15 -10z"/>
<path d="M1745 480 c3 -5 13 -10 21 -10 8 0 14 5 14 10 0 6 -9 10 -21 10 -11
0 -17 -4 -14 -10z"/>
</g>
</svg>
